<?xml version="1.0" encoding="utf-8"?>
<!-- Generator: Adobe Illustrator 19.0.0, SVG Export Plug-In . SVG Version: 6.00 Build 0)  -->
<svg version="1.1" id="Camada_1" xmlns="http://www.w3.org/2000/svg" xmlns:xlink="http://www.w3.org/1999/xlink" x="0px" y="0px"
	 viewBox="67 145 1094 272" style="enable-background:new 67 145 1094 272;" xml:space="preserve">
<style type="text/css">
	.st0{fill:#FFFFFF;}
</style>
<g>
	<path class="st0" d="M344.9,409.2c0-86,0-170.8,0-255.6c1.2-0.4,1.8-0.8,2.5-0.8c38.5,0.4,77.1,0.3,115.5,1.4
		c25.2,0.7,49.1,7.6,71.1,20.3c30.7,17.8,48.5,45.2,54.1,79.7c4.5,27.7,4.2,55.3-7,82c-15.1,36.3-42.7,58.2-80,68
		c-12.4,3.3-25.6,4.5-38.4,4.8c-35.9,0.6-71.9,0.2-107.8,0.2C351.9,409.2,348.7,409.2,344.9,409.2z M437.7,332.3
		c21.1,0.4,40.5-2.2,52.8-21c10.9-16.5,9.4-44.7-1.6-60c-9.8-13.6-31.6-20.9-51.2-17.6C437.7,266.4,437.7,299,437.7,332.3z"/>
	<path class="st0" d="M72.2,152.9c29.8,0,59.2-0.7,88.6,0.2c20.2,0.7,40.6,2,60.2,6.2c50.8,10.9,87.4,44.4,94.7,99.3
		c4.2,31.5,2.5,62.2-13.6,90.7c-18.2,31.9-46.2,50.2-81.6,56.7c-13.4,2.5-27.4,3-41.1,3.2c-33.6,0.4-67.2,0.1-100.9,0.2
		c-4.5,0-7.2-0.5-7.2-6.2c0.2-82.4,0.1-164.7,0.2-247C71.7,155.5,71.9,154.8,72.2,152.9z M164.8,331.7c21.2,3.6,43.5-5.1,53.3-20.5
		c9.8-15.3,9.2-44-2-59.4c-12.7-17.4-31.6-18.6-51.3-19C164.8,266.4,164.8,299,164.8,331.7z"/>
	<path class="st0" d="M881.6,152.5c6,0,10.9,0,15.7,0c27.6,0,55.2,0.1,82.8-0.1c4.9,0,7.5,1.6,9.6,5.9c8.2,17,16.7,33.8,24.7,49.9
		c7.8-16.2,16.1-33.7,24.7-51c1.1-2,3.9-4.4,5.9-4.4c32.5-0.2,65.2-0.1,97.7,0c0.4,0,0.8,0.4,2.3,1.2c-26.3,39.6-52.6,79.1-79,118.8
		c30.1,45,60,89.8,90.7,135.7c-3.5,0.3-5.4,0.6-7.3,0.6c-30.5,0-60.9-0.1-91.5,0.2c-5.3,0-7.9-1.8-10.2-6.2
		c-11-21.1-22.2-42.2-33-62.6c-7.7,14.7-15.8,30.4-24.3,46c-3.9,7.3-6.5,17.1-12.7,20.9c-6.1,3.8-16.1,1.6-24.3,1.6
		c-24,0.1-47.9,0-71.9,0c-2.5,0-5.1,0-9.3,0c6.3-9.9,11.8-18.6,17.4-27.1c22.8-34.7,45.5-69.6,68.8-104.1c3.4-5,1.4-7.9-1.2-11.6
		c-23.9-35.6-47.7-71.2-71.6-106.9C884.7,157.4,883.6,155.5,881.6,152.5z"/>
	<path class="st0" d="M748.5,153.4c0,57.8,0,114.8,0,172.9c25.9,0,51.4,0,77.6,0c0,28,0,54.9,0,82.4c-56.5,0-112.9,0-169.7,0
		c0-85.1,0-170.1,0-255.3C687.1,153.4,717.6,153.4,748.5,153.4z"/>
</g>
</svg>
